<svg xmlns="http://www.w3.org/2000/svg" xml:space="preserve" width="210mm" height="297mm" version="1.1" style="shape-rendering:geometricPrecision; text-rendering:geometricPrecision; image-rendering:optimizeQuality; fill-rule:evenodd; clip-rule:evenodd" viewBox="5907.28857421875 4354.50927734375 10517.470703125 12930.24072265625" xmlns:xlink="http://www.w3.org/1999/xlink" xmlns:xodm="http://www.corel.com/coreldraw/odm/2003"><defs><style type="text/css">
    .fil0 {fill:#ffffff}
    .fil1 {fill:#0f172a}
   </style></defs><g id="Layer_x0020_1"><metadata id="CorelCorpID_0Corel-Layer"/><g id="_1736202583152"><path class="fil0" d="M5907.29 10580.47l302.23 1883.4c820.8,412.03 627.08,59.07 902.33,719.72 356.15,854.85 -68.57,785.76 -390.4,1475.96l1145.67 1519.5c761.36,-136.33 1484.71,-1201.28 2095.5,450.8l296.7 644.57 1766.9 10.33c281.42,-913.15 -142.32,-998.2 771.63,-1354.86 779.18,-304.05 442.85,225.81 1471.3,484.94l1136.77 -1244.26c-182.15,-1155.23 -664.32,-681.13 -310.16,-1656.34 347.38,-956.57 525.85,-453.24 1238.74,-786.87l90.26 -1931.7c-62.69,-40.05 -147.67,-136.76 -176.08,-85.93l-713.32 -376.04c-123.22,-99.74 -420.34,-521.28 -405.75,-863.16 39.86,-934.34 1118.74,-485.92 63.05,-1659.95l-810.65 1511.18c-3392.83,-1647.98 -2723.41,-2331.44 -6282.2,-65.19l-178.13 -228.58c-321.7,-484.61 -665.08,-1665.14 -903.02,-958.25 -328.83,976.89 -42.71,59.44 34.29,391.89 71.22,307.52 680.94,603.04 14.84,1422.53 -702.69,864.51 -551.45,-206.79 -1160.5,696.31z"/><path class="fil1" d="M10895.35 8402.83c-2951.02,1115.74 -3333.83,1827.77 -3214.36,3693.17 83.4,1302.13 564.94,1305.05 1626.42,1891.75 719.46,397.65 1546.69,1103.19 2418.2,808.02 349.63,-118.42 1645.09,-913.33 2109.1,-1167.52 973.38,-533.22 982.54,-1088.95 858.62,-2607.32 -130.78,-1602.27 -3462.49,-2744.94 -3797.98,-2618.1z"/><path class="fil1" d="M7254.78 14619.91l751.18 999.49c622.9,-180.81 571.46,-915.42 1945.61,19.97 320.73,218.32 221.85,148.07 365.21,410.71 33.51,61.38 -30.84,284.42 335.18,791.95l785.5 17.44c36.25,-41.06 73.12,-190.08 86.62,-155.33l287.03 -610.24c835.19,-1370.24 2242.5,-369.17 2459.57,-301.74 187.35,-291.66 362.42,-629.25 617.29,-917.93l-531.24 -814.4c-714.3,293.02 -2516.96,1528.02 -3282.43,1443.5 -876.73,-96.81 -2317.71,-1387.53 -3265.02,-1632.67l-554.5 749.25z"/><path class="fil0" d="M8059.61 10580.47c399.13,624.84 752.83,622.07 1480.67,990.63 1915.78,970.11 1157.69,1270.31 4172.41,-439.34 570.88,-323.74 475.96,-177.07 625.3,-727.53 -1063.28,-53.96 -2076.96,956.33 -3097.08,1358.66 -631.46,-216.16 -1015.29,-478.1 -1564.13,-778.2 -240.14,-131.31 -581.04,-357.95 -788.66,-451.36 -732.37,-329.46 -691.27,-46.15 -828.51,47.14z"/><path class="fil0" d="M12819.11 9713.36c-839.74,145.35 -852.44,610.44 -1586.71,672.26 -962.28,81.02 -873.45,-512.46 -1757.44,-668.25 315.14,1764.27 3009.09,1654.88 3344.15,-4.01z"/><path class="fil0" d="M12746.05 8095.81c1398.91,-345.32 988.04,-1225.71 493.82,-2023.79 342.58,-469.8 316.2,-233.77 603.32,-935.65 -757.63,53.19 -1366.42,286.68 -1054.48,1206.23 473.89,1396.97 413.55,229.32 -42.66,1753.21z"/><path class="fil0" d="M11624.38 4354.51l-275.56 0c-35.59,48.29 -90.58,58.32 -108.43,143.36 -99.66,475.07 -1030.17,357.15 -158.5,1788.83 -186.56,732.99 -157.63,326.25 -348.86,1190.45 512.87,-174.25 765.99,-81.45 880,-810.74 96.43,-616.87 -206.38,-831.34 -432.49,-1238.46 462.52,-706.17 469.47,-437.6 443.84,-1073.44z"/><path class="fil0" d="M8503.76 5803.17c931.05,2519.29 12.78,595.88 207.63,2336.17 1126.18,-426.49 661.34,-1385.59 317.59,-2067.32 31.64,-45.36 87.42,-165.99 103.36,-128.54 19.96,46.95 141.92,-158.47 203.56,-242.09 218.74,-296.77 118.36,-2.85 282.49,-487.46 -656.94,-38.87 -748.86,109.62 -1114.63,589.24z"/><path class="fil1" d="M6320.1 12153.83l798.18 -0.44 162.61 -1393.26 -751.09 -75.73c-230.99,494.2 -43.74,-499 -188.14,532.43 -34.15,243.95 -19.1,679.88 -21.56,937z"/><path class="fil1" d="M15756.25 12416.99c84.88,-160.06 277.38,407.39 255.79,-759.72 -23.4,-1265 -26.35,-333.28 -255.79,-710.77 -499.25,114.2 -578.52,-220.94 -580.9,706.53 -2.43,945.72 37.91,589.01 580.9,763.96z"/></g></g></svg>