<?xml version="1.0" encoding="UTF-8"?>
<!DOCTYPE svg PUBLIC "-//W3C//DTD SVG 1.1//EN" "http://www.w3.org/Graphics/SVG/1.1/DTD/svg11.dtd">
<!-- Creator: CorelDRAW 2020 (64-Bit) -->
<svg xmlns="http://www.w3.org/2000/svg" xml:space="preserve" width="95mm" height="124mm" version="1.1" style="shape-rendering:geometricPrecision; text-rendering:geometricPrecision; image-rendering:optimizeQuality; fill-rule:evenodd; clip-rule:evenodd"
viewBox="0 0 9500 12400"
 xmlns:xlink="http://www.w3.org/1999/xlink"
 xmlns:xodm="http://www.corel.com/coreldraw/odm/2003">
 <defs>
  <style type="text/css">
   <![CDATA[
    .fil0 {fill:black}
   ]]>
  </style>
 </defs>
 <g id="Layer_x0020_1">
  <metadata id="CorelCorpID_0Corel-Layer"/>
  <g id="_1736037555184">
   <path class="fil0" d="M3092.46 8595.35c114.78,0 248.46,-55.97 351.48,-101.15 213.63,-93.68 301.86,-154.99 481.33,-288.82l121.51 -101.42c57.54,-58.35 127.7,-105.13 196.99,-194.84l69.73 -78.9c26.53,-29.76 43.24,-56.05 67.32,-88.05l95.24 -134.46c109.28,-173.77 159.78,-252.83 238.72,-450.34 156.89,-392.57 192.94,-859.51 253.73,-1279.82 7.08,-48.96 12.56,-86.92 19.44,-135.93 6.27,-44.72 16.36,-97.11 16.36,-139.02l544.88 921.09c125.55,229.97 298.51,508.6 435.02,747.22 214.15,374.3 440.68,744.22 652.89,1123.85 39.25,70.24 67.59,146.55 150.7,146.55l1526.77 0c18.25,0 18.63,-3.23 33.79,-6.76 0,-42.03 -6.05,-45.78 -22.35,-72.24 -108.89,-176.63 -211.38,-367.38 -316.67,-541.3 -24.98,-41.26 -49.74,-82.96 -72.74,-123.16l-567.43 -966.11c-186.3,-308.97 -375.98,-656.43 -564.91,-968.62l-284.37 -485.77c-23.13,-42.49 -46.68,-79.9 -69.52,-119.64 -24.34,-42.35 -46.61,-80.23 -72.53,-123.38 -49.42,-82.26 -95.6,-161.31 -143.62,-241.45l-104.39 -179.35c-50.98,-87.99 -97.2,-22.61 -131.44,5.07 -22.94,18.54 -44.54,34.95 -66.81,54.8l-129.14 107.31c-22.35,18.2 -41.57,31.76 -63.5,51.34 -22.66,20.22 -44.67,34.46 -67.33,54.28 -108.14,94.56 -279.36,226.91 -391.28,318.06 -69.05,56.24 -194.99,165.17 -262.51,210.38 12.97,-55.68 19.47,-126.76 28.21,-187.96l79.88 -575.42c13.73,-126.52 36.23,-259.52 53.67,-385.45 17.82,-128.63 36.29,-258.11 54.05,-385.07l160.48 -1150.11c9.42,-65.14 19.3,-129.93 27.06,-189.12 9.61,-73.35 38.16,-173.66 -4.76,-173.66l-1465.98 0c-33.77,0 -37.13,122.75 -44.36,171.81 -9.98,67.66 -19.06,133.69 -27.93,195.02l-161.23 1156.12c-75.41,511.97 -139.6,1027.41 -215.28,1541.19 -112.93,766.69 -213.69,1540.5 -322.51,2312.19l-93.25 670.72c-7.83,62.11 -2.44,41.56 6.59,80.32z"/>
   <path class="fil0" d="M896.88 7733.18c3.88,129.89 27.46,199.18 145.81,371.82l112.59 123.85c23.13,23.14 36.2,37.94 62.92,58.69 25.28,19.64 43.02,33.84 68.54,53.07l264.68 147.41 130.45 45.19c187.67,50.32 228.71,60.46 341.63,62.14l183.98 0c56.98,0 -17.33,-83.79 -17.42,-83.92 -13.97,-20.16 -26.91,-52.18 -38.94,-75.91 -92.45,-182.54 -31.62,-437.74 59.16,-600.75 87.19,-156.58 105.28,-226.61 105.28,-421.66 0,-112.97 -62.93,-284.84 -136.69,-363.22 -15.64,-16.62 -24.59,-25.46 -39.01,-42.07 -9.96,-11.49 -31.75,-30.14 -45.51,-42.3 -62.77,-55.47 -217.44,-113.48 -299.17,-119.68 -82.88,-6.29 -145.39,-2.53 -231.61,11.19 -56.15,8.95 -81.17,24.01 -128.7,40.19 -106.08,36.1 -107.23,46.09 -216.58,121.21 -35.2,24.18 -57.21,52.83 -86.65,82.24 -91.44,91.28 -188.11,246.78 -218.6,369.13 -6.86,27.5 -16.16,44.37 -16.16,71.67l0 191.71z"/>
   <path class="fil0" d="M7051.27 3933.96c22.64,15.16 23.51,33.8 62.24,8.19l246.88 -212.5c9.64,-9.02 13.52,-14.66 23.9,-23.39l218.09 -187.26c14.04,-10.91 16.15,-14.93 28.3,-25.74 12.68,-11.3 14.06,-10.14 26.6,-20.69l54.02 -47.31c11.91,-10.07 16.19,-16.44 28.05,-25.99l276.98 -236.45c20.24,-16.35 35.82,-29.02 55.99,-45.35 80.72,-65.35 134.22,-116.33 222.92,-182.42l461.25 -356.18c24.57,-17.81 37.3,-20.86 60.28,-41.06 18.91,-16.63 42.56,-33.64 45.01,-63.07 -15.15,-3.54 -15.53,-6.76 -33.78,-6.76l-2506.34 0c-86.49,0 132.57,142.94 180.84,190.72 25.3,25.03 45.56,45.81 70.81,71.06 104.25,104.25 161.95,191.52 234.75,325.96 126.12,232.85 173.56,356.19 217.2,620.5 13.54,81.96 26.01,160.1 26.01,257.74z"/>
  </g>
 </g>
</svg>
